{
    "asset" : {
        "generator" : "Khronos glTF Blender I/O v1.3.48",
        "version" : "2.0"
    },
    "scene" : 0,
    "scenes" : [
        {
            "name" : "Scene",
            "nodes" : [
                6
            ]
        }
    ],
    "nodes" : [
        {
            "mesh" : 0,
            "name" : "Mesh_0"
        },
        {
            "mesh" : 1,
            "name" : "Mesh_0_1"
        },
        {
            "mesh" : 2,
            "name" : "Mesh_0_2"
        },
        {
            "mesh" : 3,
            "name" : "Mesh_0_3"
        },
        {
            "children" : [
                0,
                1,
                2,
                3
            ],
            "name" : "Rubber_duck",
            "rotation" : [
                0.7071068286895752,
                0,
                0,
                0.7071068286895752
            ]
        },
        {
            "children" : [
                4
            ],
            "name" : "Rubber_Duckobj",
            "rotation" : [
                1,
                0,
                0,
                0
            ]
        },
        {
            "children" : [
                5
            ],
            "name" : "ducky.gltf"
        }
    ],
    "materials" : [
        {
            "emissiveFactor" : [
                0,
                0,
                0
            ],
            "name" : "yellow",
            "pbrMetallicRoughness" : {
                "baseColorFactor" : [
                    0.854992687702179,
                    0.5054047107696533,
                    0.008314999751746655,
                    1
                ],
                "metallicFactor" : 0.5,
                "roughnessFactor" : 0.5
            }
        },
        {
            "doubleSided" : true,
            "emissiveFactor" : [
                0,
                0,
                0
            ],
            "name" : "red",
            "pbrMetallicRoughness" : {
                "baseColorFactor" : [
                    0.7991027235984802,
                    0.028426039963960648,
                    0.008568125776946545,
                    1
                ],
                "metallicFactor" : 0.5,
                "roughnessFactor" : 0.5
            }
        },
        {
            "doubleSided" : true,
            "emissiveFactor" : [
                0,
                0,
                0
            ],
            "name" : "white",
            "pbrMetallicRoughness" : {
                "baseColorFactor" : [
                    0.7991027235984802,
                    0.7991027235984802,
                    0.7991027235984802,
                    1
                ],
                "metallicFactor" : 0,
                "roughnessFactor" : 0.5
            }
        },
        {
            "doubleSided" : true,
            "emissiveFactor" : [
                0,
                0,
                0
            ],
            "name" : "black",
            "pbrMetallicRoughness" : {
                "baseColorFactor" : [
                    0,
                    0,
                    0,
                    1
                ],
                "metallicFactor" : 0,
                "roughnessFactor" : 0.5
            }
        }
    ],
    "meshes" : [
        {
            "name" : "Mesh_0",
            "primitives" : [
                {
                    "attributes" : {
                        "POSITION" : 0,
                        "NORMAL" : 1
                    },
                    "indices" : 2,
                    "material" : 0
                }
            ]
        },
        {
            "name" : "Mesh_1",
            "primitives" : [
                {
                    "attributes" : {
                        "POSITION" : 3,
                        "NORMAL" : 4
                    },
                    "indices" : 5,
                    "material" : 1
                }
            ]
        },
        {
            "name" : "Mesh_2",
            "primitives" : [
                {
                    "attributes" : {
                        "POSITION" : 6,
                        "NORMAL" : 7
                    },
                    "indices" : 8,
                    "material" : 2
                }
            ]
        },
        {
            "name" : "Mesh_3",
            "primitives" : [
                {
                    "attributes" : {
                        "POSITION" : 9,
                        "NORMAL" : 10
                    },
                    "indices" : 11,
                    "material" : 3
                }
            ]
        }
    ],
    "accessors" : [
        {
            "bufferView" : 0,
            "componentType" : 5126,
            "count" : 37827,
            "max" : [
                2.32450008392334,
                1.5059000253677368,
                4.067800045013428
            ],
            "min" : [
                -2.0643999576568604,
                -1.5074000358581543,
                0.019099999219179153
            ],
            "type" : "VEC3"
        },
        {
            "bufferView" : 1,
            "componentType" : 5126,
            "count" : 37827,
            "type" : "VEC3"
        },
        {
            "bufferView" : 2,
            "componentType" : 5123,
            "count" : 37827,
            "type" : "SCALAR"
        },
        {
            "bufferView" : 3,
            "componentType" : 5126,
            "count" : 5484,
            "max" : [
                -1.6420999765396118,
                0.6940000057220459,
                3.0311999320983887
            ],
            "min" : [
                -2.6561999320983887,
                -0.7021999955177307,
                2.276099920272827
            ],
            "type" : "VEC3"
        },
        {
            "bufferView" : 4,
            "componentType" : 5126,
            "count" : 5484,
            "type" : "VEC3"
        },
        {
            "bufferView" : 5,
            "componentType" : 5123,
            "count" : 5484,
            "type" : "SCALAR"
        },
        {
            "bufferView" : 6,
            "componentType" : 5126,
            "count" : 5757,
            "max" : [
                -1.4543999433517456,
                0.8648999929428101,
                3.585900068283081
            ],
            "min" : [
                -1.9160000085830688,
                -0.869700014591217,
                2.9858999252319336
            ],
            "type" : "VEC3"
        },
        {
            "bufferView" : 7,
            "componentType" : 5126,
            "count" : 5757,
            "type" : "VEC3"
        },
        {
            "bufferView" : 8,
            "componentType" : 5123,
            "count" : 5757,
            "type" : "SCALAR"
        },
        {
            "bufferView" : 9,
            "componentType" : 5126,
            "count" : 2460,
            "max" : [
                -1.6414999961853027,
                0.7365000247955322,
                3.361299991607666
            ],
            "min" : [
                -1.8600000143051147,
                -0.7315000295639038,
                3.071500062942505
            ],
            "type" : "VEC3"
        },
        {
            "bufferView" : 10,
            "componentType" : 5126,
            "count" : 2460,
            "type" : "VEC3"
        },
        {
            "bufferView" : 11,
            "componentType" : 5123,
            "count" : 2460,
            "type" : "SCALAR"
        }
    ],
    "bufferViews" : [
        {
            "buffer" : 0,
            "byteLength" : 453924,
            "byteOffset" : 0
        },
        {
            "buffer" : 0,
            "byteLength" : 453924,
            "byteOffset" : 453924
        },
        {
            "buffer" : 0,
            "byteLength" : 75654,
            "byteOffset" : 907848
        },
        {
            "buffer" : 0,
            "byteLength" : 65808,
            "byteOffset" : 983504
        },
        {
            "buffer" : 0,
            "byteLength" : 65808,
            "byteOffset" : 1049312
        },
        {
            "buffer" : 0,
            "byteLength" : 10968,
            "byteOffset" : 1115120
        },
        {
            "buffer" : 0,
            "byteLength" : 69084,
            "byteOffset" : 1126088
        },
        {
            "buffer" : 0,
            "byteLength" : 69084,
            "byteOffset" : 1195172
        },
        {
            "buffer" : 0,
            "byteLength" : 11514,
            "byteOffset" : 1264256
        },
        {
            "buffer" : 0,
            "byteLength" : 29520,
            "byteOffset" : 1275772
        },
        {
            "buffer" : 0,
            "byteLength" : 29520,
            "byteOffset" : 1305292
        },
        {
            "buffer" : 0,
            "byteLength" : 4920,
            "byteOffset" : 1334812
        }
    ],
    "buffers" : [
        {
            "byteLength" : 1339732,
            "uri" : "data:application/octet-stream;base64,"
        }
    ]
}
