<?xml version="1.0" standalone="no"?>
<!DOCTYPE svg PUBLIC "-//W3C//DTD SVG 20010904//EN"
 "http://www.w3.org/TR/2001/REC-SVG-20010904/DTD/svg10.dtd">
<svg version="1.0" xmlns="http://www.w3.org/2000/svg"
 width="512.000000pt" height="512.000000pt" viewBox="0 0 512.000000 512.000000"
 preserveAspectRatio="xMidYMid meet">

<g transform="translate(0.000000,512.000000) scale(0.100000,-0.100000)"
fill="#000000" stroke="none">
<path d="M1489 4495 c-177 -33 -341 -114 -470 -233 -137 -128 -213 -243 -268
-407 -16 -49 -34 -119 -38 -155 -8 -63 -9 -65 -47 -83 -124 -59 -350 -113
-516 -123 -90 -6 -107 -10 -127 -30 -37 -37 -30 -68 30 -131 210 -223 553
-408 852 -459 55 -10 104 -20 108 -24 4 -4 -16 -43 -46 -86 -93 -135 -148
-263 -183 -424 -25 -116 -26 -443 -2 -576 107 -573 540 -1013 1118 -1136 84
-18 142 -21 518 -25 453 -5 469 -4 491 43 15 35 14 48 -9 76 l-20 26 -422 5
c-461 5 -506 9 -684 68 -403 132 -712 463 -820 879 -53 204 -55 495 -4 680 29
103 98 242 162 323 85 109 98 129 98 149 0 11 -42 61 -98 116 -154 152 -227
295 -253 500 -34 264 87 553 300 716 84 65 175 111 276 142 121 36 298 38 420
5 226 -61 413 -213 515 -416 59 -119 82 -217 82 -355 1 -163 -34 -291 -112
-419 -51 -82 -41 -112 56 -166 36 -20 109 -72 162 -114 217 -174 388 -264 614
-326 153 -41 402 -68 453 -49 8 4 22 19 31 35 12 25 13 33 0 63 -17 41 -23 43
-151 51 -325 22 -583 127 -853 346 -48 39 -103 80 -123 92 l-35 20 33 77 c61
141 76 217 76 385 0 167 -14 242 -76 384 -83 192 -257 375 -447 471 -170 86
-400 119 -591 85z m-789 -1039 c0 -2 6 -37 14 -78 17 -87 65 -223 101 -284 14
-24 21 -44 15 -44 -26 0 -166 53 -243 91 -90 46 -157 87 -256 157 l-65 46 115
24 c62 13 157 38 209 56 104 36 110 38 110 32z"/>
<path d="M1250 3849 c-115 -46 -137 -218 -35 -285 108 -71 255 9 255 138 -1
102 -124 185 -220 147z"/>
<path d="M4264 3190 c-42 -13 -91 -70 -100 -116 -5 -27 0 -52 20 -100 41 -101
31 -181 -32 -254 -45 -53 -101 -81 -176 -87 -74 -7 -106 -31 -106 -79 0 -24 8
-39 28 -54 24 -20 35 -22 101 -17 137 10 267 100 327 224 38 80 45 204 16 281
l-20 53 21 -7 c39 -12 121 -55 182 -97 217 -146 360 -358 421 -622 15 -64 19
-118 18 -265 -1 -202 -18 -317 -70 -462 -151 -419 -520 -732 -962 -814 -64
-11 -176 -17 -427 -21 -326 -5 -341 -6 -362 -26 -28 -25 -30 -67 -4 -98 l19
-24 349 0 c298 0 362 3 448 19 577 108 1013 533 1137 1109 18 86 22 135 22
312 1 142 -4 233 -13 280 -71 358 -301 658 -625 815 -107 52 -162 65 -212 50z"/>
<path d="M2480 2455 c-177 -40 -340 -170 -425 -337 -154 -308 -23 -693 288
-842 123 -60 184 -70 365 -63 359 14 649 115 918 318 173 130 384 389 384 470
0 43 -36 67 -209 140 -595 253 -1082 368 -1321 314z m412 -174 c182 -39 534
-153 731 -236 l38 -16 -30 -37 c-16 -20 -62 -70 -103 -110 -207 -205 -475
-340 -778 -393 -143 -25 -379 -31 -428 -10 -41 17 -113 113 -143 189 -31 78
-37 218 -14 299 43 149 165 275 313 324 75 25 272 20 414 -10z"/>
</g>
</svg>
